HIERARCHY
ROOT root
{
	OFFSET 0.000000 0.000000 0.000000
	CHANNELS 6 Xposition Yposition Zposition Zrotation Yrotation Xrotation
	JOINT lhip
	{
		OFFSET 0.058581 -0.082280 -0.017664
		CHANNELS 3 Zrotation Yrotation Xrotation
		JOINT lknee
		{
			OFFSET 0.043451 -0.386469 0.008037
			CHANNELS 3 Zrotation Yrotation Xrotation
			JOINT lankle
			{
				OFFSET -0.014790 -0.426874 -0.037428
				CHANNELS 3 Zrotation Yrotation Xrotation
				JOINT ltoe
				{
					OFFSET 0.041054 -0.060286 0.122042
					CHANNELS 3 Zrotation Yrotation Xrotation
					End Site
					{
						OFFSET 0.000000 0.000000 0.000000
					}
				}
			}
		}
	}
	JOINT rhip
	{
		OFFSET -0.060310 -0.090513 -0.013543
		CHANNELS 3 Zrotation Yrotation Xrotation
		JOINT rknee
		{
			OFFSET -0.043257 -0.383688 -0.004843
			CHANNELS 3 Zrotation Yrotation Xrotation
			JOINT rankle
			{
				OFFSET 0.019056 -0.420046 -0.034562
				CHANNELS 3 Zrotation Yrotation Xrotation
				JOINT rtoe
				{
					OFFSET -0.034840 -0.062106 0.130323
					CHANNELS 3 Zrotation Yrotation Xrotation
					End Site
					{
						OFFSET 0.000000 0.000000 0.000000
					}
				}
			}
		}
	}
	JOINT lowerback
	{
		OFFSET 0.004439 0.124404 -0.038385
		CHANNELS 3 Zrotation Yrotation Xrotation
		JOINT upperback
		{
			OFFSET 0.004488 0.137956 0.026820
			CHANNELS 3 Zrotation Yrotation Xrotation
			JOINT chest
			{
				OFFSET -0.002265 0.056032 0.002855
				CHANNELS 3 Zrotation Yrotation Xrotation
				JOINT lowerneck
				{
					OFFSET -0.013390 0.211636 -0.033468
					CHANNELS 3 Zrotation Yrotation Xrotation
					JOINT upperneck
					{
						OFFSET 0.010113 0.088937 0.050410
						CHANNELS 3 Zrotation Yrotation Xrotation
						End Site
						{
							OFFSET 0.000000 0.000000 0.000000
						}
					}
				}
				JOINT lclavicle
				{
					OFFSET 0.071702 0.114000 -0.018898
					CHANNELS 3 Zrotation Yrotation Xrotation
					JOINT lshoulder
					{
						OFFSET 0.122921 0.045205 -0.019046
						CHANNELS 3 Zrotation Yrotation Xrotation
						JOINT lelbow
						{
							OFFSET 0.255332 -0.015649 -0.022946
							CHANNELS 3 Zrotation Yrotation Xrotation
							JOINT lwrist
							{
								OFFSET 0.265709 0.012698 -0.007375
								CHANNELS 3 Zrotation Yrotation Xrotation
								End Site
								{
									OFFSET 0.000000 0.000000 0.000000
								}
							}
						}
					}
				}
				JOINT rclavicle
				{
					OFFSET -0.082954 0.112472 -0.023707
					CHANNELS 3 Zrotation Yrotation Xrotation
					JOINT rshoulder
					{
						OFFSET -0.113228 0.046853 -0.008472
						CHANNELS 3 Zrotation Yrotation Xrotation
						JOINT relbow
						{
							OFFSET -0.260127 -0.014369 -0.031269
							CHANNELS 3 Zrotation Yrotation Xrotation
							JOINT rwrist
							{
								OFFSET -0.269108 0.006794 -0.006027
								CHANNELS 3 Zrotation Yrotation Xrotation
								End Site
								{
									OFFSET 0.000000 0.000000 0.000000
								}
							}
						}
					}
				}
			}
		}
	}
}
MOTION
Frames: 13
Frame Time: 0.033333
0.020729 -1.737067 1.024537 -6.093550 1.798907 88.094986 -1.743006 -0.587087 -4.985330 -5.594436 -9.689217 6.824018 3.631875 7.476256 -1.367722 0.000000 -0.000000 0.000000 -0.220254 -2.319005 -6.369166 5.246889 -2.932797 12.330768 6.223136 -1.539832 -0.411038 0.000000 -0.000000 0.000000 -2.208892 1.725897 14.094470 2.295571 -1.395257 -1.643468 1.964059 -0.687781 -2.464708 4.442411 -17.242513 2.405640 9.095263 -21.097586 -1.884765 -23.809617 0.183216 0.855280 -54.703238 -8.719604 6.916568 13.935016 -19.677550 0.316795 -4.464323 -1.572252 -3.379850 19.639595 4.553662 -0.010030 55.125406 7.465095 13.468452 -8.819538 21.701444 6.965834 6.321107 -0.037506 3.263969 
0.022207 -1.733466 1.024523 -6.325848 1.925741 88.114596 -1.838746 -1.165443 -6.521501 -5.835191 -9.171884 9.126733 3.865674 7.984396 -1.414655 0.000000 -0.000000 0.000000 -0.120257 -1.933034 -7.794282 5.230524 -2.843923 14.282349 6.385726 -1.967075 -0.473279 0.000000 -0.000000 0.000000 -2.021271 1.600826 14.615935 2.247418 -1.202888 -2.324297 1.900672 -0.776191 -1.842484 4.446062 -16.373677 1.483937 8.696757 -20.286500 -1.102096 -23.455428 0.099610 0.828960 -55.086822 -8.833749 7.089572 13.982784 -19.907259 0.451442 -4.210714 -1.698898 -3.787560 19.479488 4.607839 -0.007180 55.184874 7.746822 13.758975 -9.109976 22.018296 6.743731 6.086827 0.095213 2.797042 
0.023950 -1.728602 1.024684 -6.714137 2.018715 88.222159 -1.805055 -1.549202 -8.203762 -6.258660 -8.581313 11.372803 4.148674 8.321987 -1.270419 0.000000 -0.000000 0.000000 -0.134002 -1.654639 -9.855347 5.269280 -2.831941 17.045844 6.486341 -2.183040 -0.660526 0.000000 -0.000000 0.000000 -1.934550 1.541090 15.102802 2.260106 -1.001881 -2.731677 1.823075 -0.847707 -1.494412 4.523443 -15.190183 0.316748 8.198482 -19.257087 -0.098027 -23.278439 0.012153 0.824319 -55.211400 -8.910751 7.262060 14.028472 -20.221368 0.475598 -3.890067 -1.825735 -3.955369 19.548173 4.689754 0.091054 54.936010 8.042162 14.016610 -9.321371 22.433380 6.470606 5.856943 0.242541 2.523024 
0.026892 -1.718444 1.024494 -7.638537 2.145265 88.598799 -1.483679 -1.691392 -10.826094 -7.109572 -7.670068 13.952568 4.491013 8.828098 -1.302837 0.000000 -0.000000 0.000000 -0.421428 -1.014731 -14.284293 5.646932 -3.105479 22.872960 7.120155 -2.328473 -1.547119 0.000000 -0.000000 0.000000 -1.936505 1.315821 16.092204 2.339836 -0.457646 -3.424772 1.615393 -0.808474 -1.286851 4.739446 -12.864331 -1.906193 7.306492 -17.274294 1.533836 -23.094829 -0.093929 0.942072 -55.117319 -8.945755 7.546582 14.347087 -20.871190 0.024610 -3.294896 -2.085952 -3.974180 19.918042 4.894870 0.403228 54.193534 8.474978 14.324910 -9.621330 23.195507 5.842166 5.658699 0.500004 2.396537 
0.027789 -1.714568 1.024264 -8.036768 2.217336 88.750994 -1.288695 -1.566988 -11.688091 -7.424701 -7.397679 14.654560 4.576718 8.982384 -1.401443 0.000000 -0.000000 0.000000 -0.576094 -0.742389 -15.858508 5.854136 -3.372910 25.002478 7.468590 -2.243111 -2.081413 0.000000 -0.000000 0.000000 -1.916314 1.219538 16.462070 2.351926 -0.231312 -3.628072 1.538488 -0.749905 -1.338164 4.798025 -11.921561 -2.592034 7.031298 -16.459356 1.939595 -23.036043 -0.094244 1.010317 -55.050248 -8.876391 7.559319 14.517754 -21.172990 -0.210828 -3.079599 -2.185187 -3.950526 20.039843 4.967490 0.565340 53.942264 8.608030 14.369959 -9.716416 23.482097 5.626561 5.614061 0.593948 2.364775 
0.029220 -1.706553 1.023458 -8.881335 2.402709 88.985608 -0.773287 -1.216857 -13.349678 -8.088657 -6.837715 16.066741 4.656485 9.194507 -1.582676 0.000000 -0.000000 0.000000 -0.975913 -0.244974 -18.555158 6.127371 -4.424003 29.191766 8.137748 -1.985618 -3.595654 0.000000 -0.000000 0.000000 -1.818791 1.069463 17.175927 2.333375 0.189191 -3.859779 1.390732 -0.582540 -1.611003 4.818117 -9.883480 -3.644362 6.563646 -14.628768 2.433988 -22.910629 -0.010359 1.164195 -54.921713 -8.643644 7.416913 14.963285 -21.850493 -0.717207 -2.690552 -2.376199 -3.894671 20.256098 5.152037 1.003578 53.505214 8.882950 14.327933 -9.917554 23.995983 5.215136 5.532023 0.772068 2.281290 
0.030090 -1.698373 1.022023 -9.647389 2.571799 89.013938 -0.196363 -0.936074 -14.832174 -8.665802 -6.167368 17.444878 4.699787 9.281367 -1.607113 0.000000 -0.000000 0.000000 -1.481057 -0.069667 -20.302093 5.836129 -6.033927 33.849950 8.277815 -1.962170 -5.593023 0.000000 -0.000000 0.000000 -1.681054 1.020096 17.867734 2.233980 0.492206 -3.944698 1.210050 -0.398472 -1.993450 4.604621 -7.494497 -3.601502 6.485620 -12.483842 2.405792 -22.640833 0.194927 1.264074 -54.930161 -8.318242 7.081935 15.475181 -22.493593 -1.079932 -2.439800 -2.392254 -3.872881 20.443911 5.387127 1.513821 53.219011 9.109667 14.140836 -10.071431 24.316250 4.969458 5.501582 0.850006 2.183904 
0.030484 -1.690142 1.020140 -10.167390 2.605949 88.773757 0.246600 -0.895903 -15.967977 -9.116376 -5.564438 18.670301 5.049320 9.193802 -1.246238 0.000000 -0.000000 0.000000 -2.141604 -0.423619 -20.870056 5.037436 -7.522127 39.700018 7.771424 -2.419169 -7.370349 0.000000 -0.000000 0.000000 -1.586139 1.071095 18.373069 2.078120 0.667175 -3.954862 0.957758 -0.296995 -2.201646 4.133446 -4.494954 -2.123341 6.546746 -9.730558 2.286687 -22.302934 0.453179 1.185650 -54.940566 -7.933698 6.670982 15.810944 -22.891340 -1.141405 -2.360648 -2.122094 -3.815139 20.719038 5.573600 1.884011 52.968268 9.236073 13.993391 -10.051656 24.353781 4.953955 5.556655 0.779546 2.186943 
0.030440 -1.681678 1.018211 -10.340899 2.479897 88.367507 0.504591 -1.061291 -16.822883 -9.485045 -5.035945 19.706055 5.578596 9.066219 -0.885485 0.000000 -0.000000 0.000000 -2.969309 -1.122640 -20.126860 4.179284 -8.299029 46.236049 7.110668 -3.350400 -8.043668 0.000000 -0.000000 0.000000 -1.580894 1.208819 18.423827 1.950033 0.739007 -3.895882 0.686871 -0.326265 -2.081604 3.609898 -1.178403 -0.033342 6.066226 -6.403072 2.902654 -22.187425 0.686441 0.939475 -54.678250 -7.559083 6.289809 15.805147 -22.892913 -0.990123 -2.335439 -1.721435 -3.596570 21.132038 5.573427 2.036760 52.625803 9.298726 14.106244 -9.841666 24.119281 4.970789 5.594167 0.654571 2.332682 
0.029880 -1.672493 1.016550 -10.190054 2.283405 87.949642 0.690908 -1.375869 -17.663439 -9.818454 -4.467360 20.686867 5.908845 8.998767 -0.741380 0.000000 -0.000000 0.000000 -3.808065 -1.850616 -18.071810 3.633509 -8.314080 51.930767 6.755039 -4.345748 -7.067736 0.000000 -0.000000 0.000000 -1.627474 1.457167 18.040246 1.903645 0.695444 -3.817443 0.460088 -0.411839 -1.760869 3.178586 1.503222 1.543567 4.972737 -3.231853 4.289399 -22.480726 0.958979 0.591298 -54.042832 -7.269190 5.967830 15.553008 -22.576803 -0.802942 -2.319140 -1.321153 -3.247820 21.630292 5.281415 1.987264 52.221428 9.297320 14.479293 -9.550811 23.781938 4.858512 5.553583 0.575327 2.574915 
0.028765 -1.662035 1.015051 -9.872526 2.105762 87.582830 0.930943 -1.794423 -18.720889 -10.111034 -3.749925 21.786849 5.874458 8.960432 -0.606384 0.000000 -0.000000 0.000000 -4.464219 -2.427240 -14.971706 3.563355 -7.709012 55.682929 6.836598 -4.746488 -4.950380 0.000000 -0.000000 0.000000 -1.692936 1.882437 17.465784 1.930534 0.510592 -3.765676 0.280486 -0.427612 -1.517031 2.792843 3.091559 2.553297 3.943879 -0.881055 5.662898 -22.937801 1.287676 0.289266 -53.327116 -7.002330 5.675948 15.305651 -22.201259 -0.691396 -2.393624 -0.934105 -2.983143 22.064662 4.780405 1.915041 51.910007 9.153877 14.840284 -9.301691 23.575744 4.711169 5.553204 0.521095 2.742667 
0.027011 -1.650331 1.013352 -9.580121 1.958544 87.205982 1.268531 -2.205642 -19.987430 -10.370697 -3.037615 23.116123 5.741500 8.700331 -0.158853 0.000000 -0.000000 0.000000 -4.902602 -2.952257 -11.088461 4.090555 -6.565863 56.983648 7.279178 -4.227865 -2.922581 0.000000 -0.000000 0.000000 -1.758736 2.501337 16.775064 1.973592 0.241279 -3.668678 0.136818 -0.380371 -1.336394 2.430489 4.059536 3.229764 3.117345 0.825326 6.870626 -23.371968 1.698013 0.012358 -52.686559 -6.662151 5.410453 15.106222 -21.919890 -0.536885 -2.540054 -0.652534 -2.880145 22.429172 4.208729 1.902200 51.667803 8.942956 15.067336 -9.083378 23.499784 4.680711 5.629008 0.482625 2.788453 
0.024696 -1.637151 1.010747 -9.399413 1.809461 86.819491 1.700160 -2.520495 -21.473678 -10.595185 -2.402067 24.650318 5.507883 8.208398 0.397604 0.000000 -0.000000 0.000000 -5.159770 -3.457534 -6.846456 4.960604 -4.992622 55.876976 7.614455 -3.565455 -1.773097 0.000000 -0.000000 0.000000 -1.833734 3.280892 15.921830 2.025992 -0.046439 -3.478820 0.052629 -0.287532 -1.066141 2.183783 3.693057 2.890001 2.436555 1.026093 7.490330 -23.745512 2.116926 -0.156295 -52.163102 -6.311180 5.243920 14.909364 -21.701186 -0.117010 -2.651932 -0.681091 -3.086658 22.605448 3.705178 1.788823 51.570167 8.640393 15.208770 -8.883143 23.465205 4.918990 5.663503 0.484377 2.720091 
